<svg width="1200" height="630" viewBox="0 0 1200 630" xmlns="http://www.w3.org/2000/svg"><mask id="satori_om-id"><rect x="0" y="0" width="1200" height="630" fill="#fff"/></mask><rect x="0" y="0" width="1200" height="630" fill="#fff"/><clipPath id="satori_cp-id-0"><rect x="563" y="243" width="75" height="65"/></clipPath><mask id="satori_om-id-0"><rect x="563" y="243" width="75" height="65" fill="#fff"/></mask><image x="563" y="243" width="75" height="65" href="data:image/svg+xml;utf8,%3Csvg  fill=%22%23000%22 xmlns=%22http://www.w3.org/2000/svg%22 width=%22NaN%22 height=%22null%22 viewBox=%220 0 75 65%22%3E%3Cpath d=%22M37.59.25l36.95 64H.64l36.95-64z%22%3E%3C/path%3E%3C/svg%3E" preserveAspectRatio="none" clip-path="url(#satori_cp-id-0)" mask="url(#satori_om-id-0)"/><mask id="satori_om-id-0-0"><rect x="563" y="243" width="0" height="65" fill="#fff"/></mask><mask id="satori_om-id-1"><rect x="459" y="348" width="283" height="39" fill="#fff"/></mask><g  ><path fill="black" d="M476.8 379L461.0 379L461.0 355.7L476.7 355.7L476.7 359.8L465.9 359.8L465.9 365.3L475.9 365.3L475.9 369.4L465.9 369.4L465.9 374.9L476.8 374.9L476.8 379ZM487.0 379.3L487.0 379.3Q485.0 379.3 483.4 378.3Q481.8 377.2 480.8 375.2Q479.9 373.2 479.9 370.3L479.9 370.3Q479.9 367.3 480.9 365.3Q481.8 363.3 483.4 362.3Q485.0 361.3 487.0 361.3L487.0 361.3Q488.4 361.3 489.4 361.8Q490.4 362.3 491.0 363.0Q491.6 363.8 491.9 364.5L491.9 364.5L492.1 364.5L492.1 355.7L496.9 355.7L496.9 379L492.1 379L492.1 376.2L491.9 376.2Q491.6 376.9 491.0 377.6Q490.3 378.4 489.4 378.8Q488.4 379.3 487.0 379.3ZM488.5 375.4L488.5 375.4Q489.7 375.4 490.5 374.8Q491.3 374.1 491.7 373.0Q492.2 371.8 492.2 370.3L492.2 370.3Q492.2 368.7 491.7 367.6Q491.3 366.4 490.5 365.8Q489.7 365.2 488.5 365.2L488.5 365.2Q487.3 365.2 486.5 365.8Q485.7 366.5 485.3 367.6Q484.8 368.8 484.8 370.3L484.8 370.3Q484.8 371.8 485.3 373.0Q485.7 374.1 486.5 374.8Q487.3 375.4 488.5 375.4ZM507.3 379.3L507.3 379.3Q505.3 379.3 503.7 378.3Q502.1 377.2 501.2 375.2Q500.2 373.2 500.2 370.3L500.2 370.3Q500.2 367.3 501.2 365.3Q502.1 363.3 503.8 362.3Q505.4 361.3 507.3 361.3L507.3 361.3Q508.8 361.3 509.7 361.8Q510.7 362.3 511.3 363.0Q511.9 363.8 512.3 364.5L512.3 364.5L512.4 364.5L512.4 355.7L517.2 355.7L517.2 379L512.5 379L512.5 376.2L512.3 376.2Q511.9 376.9 511.3 377.6Q510.7 378.4 509.7 378.8Q508.7 379.3 507.3 379.3ZM508.8 375.4L508.8 375.4Q510 375.4 510.8 374.8Q511.6 374.1 512.1 373.0Q512.5 371.8 512.5 370.3L512.5 370.3Q512.5 368.7 512.1 367.6Q511.6 366.4 510.8 365.8Q510 365.2 508.8 365.2L508.8 365.2Q507.6 365.2 506.8 365.8Q506 366.5 505.6 367.6Q505.2 368.8 505.2 370.3L505.2 370.3Q505.2 371.8 505.6 373.0Q506.0 374.1 506.8 374.8Q507.6 375.4 508.8 375.4ZM526.0 379L521.2 379L521.2 361.5L526.0 361.5L526.0 379ZM523.6 359.3L523.6 359.3Q522.5 359.3 521.8 358.6Q521.0 357.9 521.0 356.8L521.0 356.8Q521.0 355.8 521.8 355.1Q522.5 354.4 523.6 354.4L523.6 354.4Q524.7 354.4 525.5 355.1Q526.2 355.8 526.2 356.8L526.2 356.8Q526.2 357.9 525.5 358.6Q524.7 359.3 523.6 359.3ZM537.9 379.3L537.9 379.3Q535.2 379.3 533.2 378.2Q531.3 377.1 530.2 375.1Q529.2 373.1 529.2 370.4L529.2 370.4Q529.2 367.7 530.2 365.6Q531.3 363.6 533.2 362.5Q535.1 361.3 537.7 361.3L537.7 361.3Q539.4 361.3 540.9 361.9Q542.4 362.4 543.5 363.5Q544.6 364.6 545.2 366.3Q545.9 368.0 545.9 370.2L545.9 370.2L545.9 371.5L531.1 371.5L531.1 368.5L541.3 368.5Q541.3 367.5 540.9 366.7Q540.4 365.9 539.6 365.4Q538.8 364.9 537.7 364.9L537.7 364.9Q536.6 364.9 535.8 365.4Q534.9 365.9 534.5 366.8Q534.0 367.6 534.0 368.7L534.0 368.7L534.0 371.5Q534.0 372.8 534.5 373.8Q534.9 374.7 535.8 375.2Q536.7 375.7 537.9 375.7L537.9 375.7Q538.7 375.7 539.4 375.5Q540.1 375.3 540.6 374.8Q541.0 374.4 541.3 373.7L541.3 373.7L545.8 374Q545.4 375.6 544.4 376.8Q543.3 378.0 541.7 378.7Q540.0 379.3 537.9 379.3Z M565 379.3L565 379.3Q562.5 379.3 560.5 378.4Q558.5 377.6 557.3 376.0Q556.2 374.5 556.2 372.4L556.2 372.4L561.1 372.4Q561.2 373.3 561.7 373.9Q562.2 374.6 563.1 374.9Q563.9 375.3 565.0 375.3L565.0 375.3Q566.1 375.3 567 374.9Q567.9 374.5 568.4 373.8Q568.8 373.1 568.8 372.1L568.8 372.1Q568.8 371.2 568.3 370.5Q567.8 369.8 566.8 369.4Q565.9 368.9 564.6 368.9L564.6 368.9L562.4 368.9L562.4 365.3L564.6 365.3Q565.7 365.3 566.5 364.9Q567.4 364.6 567.9 363.9Q568.4 363.2 568.4 362.3L568.4 362.3Q568.4 361.4 567.9 360.7Q567.5 360.1 566.8 359.7Q566.0 359.3 565.0 359.3L565.0 359.3Q564.0 359.3 563.2 359.7Q562.4 360.0 561.9 360.7Q561.4 361.3 561.4 362.2L561.4 362.2L556.6 362.2Q556.7 360.2 557.8 358.7Q558.9 357.1 560.8 356.3Q562.7 355.4 565.1 355.4L565.1 355.4Q567.5 355.4 569.3 356.3Q571.1 357.2 572.1 358.6Q573.1 360.1 573.1 362.0L573.1 362.0Q573.1 363.9 571.9 365.2Q570.7 366.5 568.7 366.9L568.7 366.9L568.7 367.1Q571.3 367.4 572.6 368.8Q574.0 370.3 574.0 372.5L574.0 372.5Q574.0 374.5 572.8 376Q571.7 377.5 569.6 378.4Q567.6 379.3 565 379.3ZM585.9 379L585.9 379L577.6 379L577.6 355.7L586.0 355.7Q589.5 355.7 592 357.1Q594.5 358.5 595.9 361.1Q597.3 363.7 597.3 367.3L597.3 367.3Q597.3 371.0 595.9 373.6Q594.5 376.2 592.0 377.6Q589.4 379 585.9 379ZM582.6 359.9L582.6 374.8L585.7 374.8Q587.9 374.8 589.4 374.0Q590.9 373.2 591.6 371.6Q592.4 369.9 592.4 367.3L592.4 367.3Q592.4 364.8 591.6 363.1Q590.9 361.5 589.4 360.7Q587.9 359.9 585.7 359.9L585.7 359.9L582.6 359.9Z M613.3 379L608.3 379L608.3 355.7L617.5 355.7Q620.2 355.7 622.0 356.7Q623.9 357.7 624.9 359.5Q625.9 361.3 625.9 363.6L625.9 363.6Q625.9 365.9 624.9 367.7Q623.9 369.5 622.0 370.5Q620.1 371.5 617.4 371.5L617.4 371.5L611.5 371.5L611.5 367.5L616.6 367.5Q618.0 367.5 618.9 367.0Q619.9 366.5 620.3 365.6Q620.8 364.8 620.8 363.6L620.8 363.6Q620.8 362.5 620.3 361.6Q619.9 360.7 618.9 360.2Q618.0 359.8 616.6 359.8L616.6 359.8L613.3 359.8L613.3 379ZM636.6 379.3L636.6 379.3Q633.9 379.3 632.0 378.2Q630.1 377.1 629.0 375.1Q628.0 373.0 628.0 370.3L628.0 370.3Q628.0 367.6 629.0 365.6Q630.1 363.6 632.0 362.4Q633.9 361.3 636.6 361.3L636.6 361.3Q639.2 361.3 641.1 362.4Q643.1 363.6 644.1 365.6Q645.1 367.6 645.1 370.3L645.1 370.3Q645.1 373.0 644.1 375.1Q643.1 377.1 641.1 378.2Q639.2 379.3 636.6 379.3ZM636.6 375.6L636.6 375.6Q637.8 375.6 638.6 374.9Q639.4 374.2 639.8 373.0Q640.2 371.8 640.2 370.3L640.2 370.3Q640.2 368.8 639.8 367.6Q639.4 366.4 638.6 365.7Q637.8 365.0 636.6 365.0L636.6 365.0Q635.4 365.0 634.5 365.7Q633.7 366.4 633.3 367.6Q632.9 368.8 632.9 370.3L632.9 370.3Q632.9 371.8 633.3 373.0Q633.7 374.2 634.5 374.9Q635.4 375.6 636.6 375.6ZM653.1 379L648.3 379L648.3 361.5L653.0 361.5L653.0 364.6L653.2 364.6Q653.7 363.0 654.8 362.1Q655.9 361.3 657.4 361.3L657.4 361.3Q657.7 361.3 658.2 361.3Q658.6 361.4 658.9 361.5L658.9 361.5L658.9 365.8Q658.6 365.7 658.0 365.6Q657.4 365.5 656.9 365.5L656.9 365.5Q655.8 365.5 654.9 366.0Q654.1 366.4 653.6 367.2Q653.1 368.1 653.1 369.1L653.1 369.1L653.1 379ZM661.0 361.5L671.5 361.5L671.5 365.2L661.0 365.2L661.0 361.5ZM663.4 374.3L663.4 357.4L668.3 357.4L668.3 373.6Q668.3 374.3 668.5 374.7Q668.7 375.0 669.0 375.2Q669.4 375.3 669.9 375.3L669.9 375.3Q670.2 375.3 670.6 375.3Q670.9 375.2 671.1 375.2L671.1 375.2L671.9 378.8Q671.5 378.9 670.8 379.1Q670.2 379.2 669.2 379.2L669.2 379.2Q667.5 379.3 666.2 378.8Q664.9 378.2 664.1 377.1Q663.4 376.0 663.4 374.3L663.4 374.3ZM673.3 361.5L684.1 361.5L684.1 365.2L673.3 365.2L673.3 361.5ZM680.6 379L675.8 379L675.8 360.3Q675.8 358.4 676.5 357.1Q677.3 355.9 678.6 355.3Q679.9 354.6 681.5 354.6L681.5 354.6Q682.6 354.6 683.5 354.8Q684.5 355.0 684.9 355.1L684.9 355.1L684.1 358.8Q683.8 358.7 683.4 358.6Q682.9 358.5 682.5 358.5L682.5 358.5Q681.4 358.5 681.0 359.0Q680.6 359.5 680.6 360.4L680.6 360.4L680.6 379ZM694.3 379.3L694.3 379.3Q691.7 379.3 689.7 378.2Q687.8 377.1 686.8 375.1Q685.7 373.0 685.7 370.3L685.7 370.3Q685.7 367.6 686.8 365.6Q687.8 363.6 689.7 362.4Q691.7 361.3 694.3 361.3L694.3 361.3Q697.0 361.3 698.9 362.4Q700.8 363.6 701.9 365.6Q702.9 367.6 702.9 370.3L702.9 370.3Q702.9 373.0 701.9 375.1Q700.8 377.1 698.9 378.2Q697.0 379.3 694.3 379.3ZM694.3 375.6L694.3 375.6Q695.5 375.6 696.3 374.9Q697.1 374.2 697.6 373.0Q698.0 371.8 698.0 370.3L698.0 370.3Q698.0 368.8 697.6 367.6Q697.1 366.4 696.3 365.7Q695.5 365.0 694.3 365.0L694.3 365.0Q693.1 365.0 692.3 365.7Q691.5 366.4 691.1 367.6Q690.6 368.8 690.6 370.3L690.6 370.3Q690.6 371.8 691.1 373.0Q691.5 374.2 692.3 374.9Q693.1 375.6 694.3 375.6ZM706.1 355.7L710.9 355.7L710.9 379L706.1 379L706.1 355.7ZM719.6 379L714.8 379L714.8 361.5L719.6 361.5L719.6 379ZM717.2 359.3L717.2 359.3Q716.1 359.3 715.3 358.6Q714.6 357.9 714.6 356.8L714.6 356.8Q714.6 355.8 715.3 355.1Q716.1 354.4 717.2 354.4L717.2 354.4Q718.3 354.4 719.0 355.1Q719.8 355.8 719.8 356.8L719.8 356.8Q719.8 357.9 719.0 358.6Q718.3 359.3 717.2 359.3ZM731.4 379.3L731.4 379.3Q728.7 379.3 726.8 378.2Q724.9 377.1 723.8 375.1Q722.8 373.0 722.8 370.3L722.8 370.3Q722.8 367.6 723.8 365.6Q724.9 363.6 726.8 362.4Q728.7 361.3 731.4 361.3L731.4 361.3Q734.0 361.3 735.9 362.4Q737.9 363.6 738.9 365.6Q739.9 367.6 739.9 370.3L739.9 370.3Q739.9 373.0 738.9 375.1Q737.9 377.1 735.9 378.2Q734.0 379.3 731.4 379.3ZM731.4 375.6L731.4 375.6Q732.6 375.6 733.4 374.9Q734.2 374.2 734.6 373.0Q735.0 371.8 735.0 370.3L735.0 370.3Q735.0 368.8 734.6 367.6Q734.2 366.4 733.4 365.7Q732.6 365.0 731.4 365.0L731.4 365.0Q730.2 365.0 729.3 365.7Q728.5 366.4 728.1 367.6Q727.7 368.8 727.7 370.3L727.7 370.3Q727.7 371.8 728.1 373.0Q728.5 374.2 729.3 374.9Q730.2 375.6 731.4 375.6Z "/></g></svg>